<mxfile host="Electron" agent="Mozilla/5.0 (Windows NT 10.0; Win64; x64) AppleWebKit/537.36 (KHTML, like Gecko) draw.io/24.7.17 Chrome/128.0.6613.36 Electron/32.0.1 Safari/537.36" version="24.7.17">
  <diagram name="第 1 页" id="zl_rbs1pInSWPyU9xkF0">
    <mxGraphModel dx="1219" dy="722" grid="0" gridSize="10" guides="1" tooltips="1" connect="1" arrows="1" fold="1" page="0" pageScale="1" pageWidth="1169" pageHeight="827" math="0" shadow="0">
      <root>
        <mxCell id="0" />
        <mxCell id="1" parent="0" />
        <mxCell id="uCNTNQA1VnQm7NmcqODm-1" value="" style="shape=curlyBracket;whiteSpace=wrap;html=1;rounded=1;labelPosition=left;verticalLabelPosition=middle;align=right;verticalAlign=middle;fontSize=16;fontStyle=1" vertex="1" parent="1">
          <mxGeometry x="650" y="140" width="20" height="260" as="geometry" />
        </mxCell>
        <mxCell id="uCNTNQA1VnQm7NmcqODm-2" value="&lt;font style=&quot;font-size: 29px;&quot;&gt;Indicator Evaluation&lt;/font&gt;" style="text;html=1;align=center;verticalAlign=middle;resizable=0;points=[];autosize=1;strokeColor=none;fillColor=none;fontSize=16;fontStyle=1" vertex="1" parent="1">
          <mxGeometry x="355" y="225" width="280" height="50" as="geometry" />
        </mxCell>
        <mxCell id="uCNTNQA1VnQm7NmcqODm-3" value="Performance" style="rounded=0;whiteSpace=wrap;html=1;fillColor=#f8cecc;strokeColor=#b85450;fontSize=16;fontStyle=1" vertex="1" parent="1">
          <mxGeometry x="700" y="150" width="90" height="40" as="geometry" />
        </mxCell>
        <mxCell id="uCNTNQA1VnQm7NmcqODm-4" value="" style="shape=curlyBracket;whiteSpace=wrap;html=1;rounded=1;labelPosition=left;verticalLabelPosition=middle;align=right;verticalAlign=middle;fontSize=16;fontStyle=1" vertex="1" parent="1">
          <mxGeometry x="820" y="110" width="20" height="120" as="geometry" />
        </mxCell>
        <mxCell id="uCNTNQA1VnQm7NmcqODm-5" value="Page Load Time" style="rounded=0;whiteSpace=wrap;html=1;fillColor=#ffe6cc;strokeColor=#d79b00;fontSize=16;fontStyle=1" vertex="1" parent="1">
          <mxGeometry x="860" y="120" width="120" height="40" as="geometry" />
        </mxCell>
        <mxCell id="uCNTNQA1VnQm7NmcqODm-6" value="System Response Time" style="rounded=0;whiteSpace=wrap;html=1;fillColor=#ffe6cc;strokeColor=#d79b00;fontSize=16;fontStyle=1" vertex="1" parent="1">
          <mxGeometry x="860" y="180" width="120" height="40" as="geometry" />
        </mxCell>
        <mxCell id="uCNTNQA1VnQm7NmcqODm-7" value="User Experience" style="rounded=0;whiteSpace=wrap;html=1;fillColor=#f8cecc;strokeColor=#b85450;fontSize=16;fontStyle=1" vertex="1" parent="1">
          <mxGeometry x="700" y="333.5" width="90" height="40" as="geometry" />
        </mxCell>
        <mxCell id="uCNTNQA1VnQm7NmcqODm-8" value="" style="shape=curlyBracket;whiteSpace=wrap;html=1;rounded=1;labelPosition=left;verticalLabelPosition=middle;align=right;verticalAlign=middle;fontSize=16;fontStyle=1" vertex="1" parent="1">
          <mxGeometry x="820" y="290" width="20" height="140" as="geometry" />
        </mxCell>
        <mxCell id="uCNTNQA1VnQm7NmcqODm-9" value="Operational Interface" style="rounded=0;whiteSpace=wrap;html=1;fillColor=#d5e8d4;strokeColor=#82b366;fontSize=16;fontStyle=1" vertex="1" parent="1">
          <mxGeometry x="860" y="290" width="120" height="40" as="geometry" />
        </mxCell>
        <mxCell id="uCNTNQA1VnQm7NmcqODm-11" value="Article Publishing and Management" style="rounded=0;whiteSpace=wrap;html=1;fillColor=#d5e8d4;strokeColor=#82b366;fontSize=16;fontStyle=1" vertex="1" parent="1">
          <mxGeometry x="860" y="340" width="120" height="40" as="geometry" />
        </mxCell>
        <mxCell id="uCNTNQA1VnQm7NmcqODm-12" value="Content Reading and Search" style="rounded=0;whiteSpace=wrap;html=1;fillColor=#d5e8d4;strokeColor=#82b366;fontSize=16;fontStyle=1" vertex="1" parent="1">
          <mxGeometry x="860" y="393.5" width="120" height="40" as="geometry" />
        </mxCell>
        <mxCell id="uCNTNQA1VnQm7NmcqODm-15" value="Content Support" style="rounded=0;whiteSpace=wrap;html=1;fillColor=#f8cecc;strokeColor=#b85450;fontSize=16;fontStyle=1" vertex="1" parent="1">
          <mxGeometry x="200" y="130" width="90" height="40" as="geometry" />
        </mxCell>
        <mxCell id="uCNTNQA1VnQm7NmcqODm-16" value="" style="shape=curlyBracket;whiteSpace=wrap;html=1;rounded=1;labelPosition=left;verticalLabelPosition=middle;align=right;verticalAlign=middle;rotation=-180;fontSize=16;fontStyle=1" vertex="1" parent="1">
          <mxGeometry x="160" y="90" width="20" height="120" as="geometry" />
        </mxCell>
        <mxCell id="uCNTNQA1VnQm7NmcqODm-17" value="Article Format Compatibility" style="rounded=0;whiteSpace=wrap;html=1;fillColor=#dae8fc;strokeColor=#6c8ebf;fontSize=16;fontStyle=1" vertex="1" parent="1">
          <mxGeometry x="20" y="100" width="120" height="40" as="geometry" />
        </mxCell>
        <mxCell id="uCNTNQA1VnQm7NmcqODm-18" value="Content Display Effect" style="rounded=0;whiteSpace=wrap;html=1;fillColor=#dae8fc;strokeColor=#6c8ebf;fontSize=16;fontStyle=1" vertex="1" parent="1">
          <mxGeometry x="20" y="160" width="120" height="40" as="geometry" />
        </mxCell>
        <mxCell id="uCNTNQA1VnQm7NmcqODm-19" value="System Quality" style="rounded=0;whiteSpace=wrap;html=1;fillColor=#f8cecc;strokeColor=#b85450;fontSize=16;fontStyle=1" vertex="1" parent="1">
          <mxGeometry x="210" y="310" width="90" height="40" as="geometry" />
        </mxCell>
        <mxCell id="uCNTNQA1VnQm7NmcqODm-20" value="" style="shape=curlyBracket;whiteSpace=wrap;html=1;rounded=1;labelPosition=left;verticalLabelPosition=middle;align=right;verticalAlign=middle;rotation=-180;fontSize=16;fontStyle=1" vertex="1" parent="1">
          <mxGeometry x="160" y="260" width="20" height="140" as="geometry" />
        </mxCell>
        <mxCell id="uCNTNQA1VnQm7NmcqODm-21" value="Document Integrity" style="rounded=0;whiteSpace=wrap;html=1;fillColor=#f5f5f5;fontColor=#333333;strokeColor=#666666;fontSize=16;fontStyle=1" vertex="1" parent="1">
          <mxGeometry x="20" y="270" width="120" height="40" as="geometry" />
        </mxCell>
        <mxCell id="uCNTNQA1VnQm7NmcqODm-22" value="Code Quality" style="rounded=0;whiteSpace=wrap;html=1;fillColor=#f5f5f5;fontColor=#333333;strokeColor=#666666;fontSize=16;fontStyle=1" vertex="1" parent="1">
          <mxGeometry x="20" y="320" width="120" height="40" as="geometry" />
        </mxCell>
        <mxCell id="uCNTNQA1VnQm7NmcqODm-23" value="System Scalability" style="rounded=0;whiteSpace=wrap;html=1;fillColor=#f5f5f5;fontColor=#333333;strokeColor=#666666;fontSize=16;fontStyle=1" vertex="1" parent="1">
          <mxGeometry x="20" y="373.5" width="120" height="40" as="geometry" />
        </mxCell>
        <mxCell id="uCNTNQA1VnQm7NmcqODm-26" value="" style="shape=curlyBracket;whiteSpace=wrap;html=1;rounded=1;flipH=1;labelPosition=right;verticalLabelPosition=middle;align=left;verticalAlign=middle;fontSize=16;fontStyle=1" vertex="1" parent="1">
          <mxGeometry x="310" y="140" width="20" height="270" as="geometry" />
        </mxCell>
        <mxCell id="uCNTNQA1VnQm7NmcqODm-28" value="Security" style="rounded=0;whiteSpace=wrap;html=1;fillColor=#f8cecc;strokeColor=#b85450;fontSize=16;fontStyle=1" vertex="1" parent="1">
          <mxGeometry x="450" y="360" width="90" height="40" as="geometry" />
        </mxCell>
        <mxCell id="uCNTNQA1VnQm7NmcqODm-32" value="" style="line;strokeWidth=2;direction=south;html=1;fontSize=16;fontStyle=1" vertex="1" parent="1">
          <mxGeometry x="490" y="290" width="10" height="60" as="geometry" />
        </mxCell>
        <mxCell id="uCNTNQA1VnQm7NmcqODm-33" value="" style="shape=curlyBracket;whiteSpace=wrap;html=1;rounded=1;labelPosition=left;verticalLabelPosition=middle;align=right;verticalAlign=middle;rotation=90;fontSize=16;fontStyle=1" vertex="1" parent="1">
          <mxGeometry x="485" y="390" width="20" height="120" as="geometry" />
        </mxCell>
        <mxCell id="uCNTNQA1VnQm7NmcqODm-35" value="Authentication and Authorization" style="rounded=0;whiteSpace=wrap;html=1;fillColor=#e3c800;fontColor=#000000;strokeColor=#B09500;fontSize=16;fontStyle=1" vertex="1" parent="1">
          <mxGeometry x="330" y="480" width="140" height="40" as="geometry" />
        </mxCell>
        <mxCell id="uCNTNQA1VnQm7NmcqODm-36" value="Protection Capability" style="rounded=0;whiteSpace=wrap;html=1;fillColor=#e3c800;fontColor=#000000;strokeColor=#B09500;fontSize=16;fontStyle=1" vertex="1" parent="1">
          <mxGeometry x="500" y="480" width="140" height="40" as="geometry" />
        </mxCell>
      </root>
    </mxGraphModel>
  </diagram>
</mxfile>
